# xmcd CD database file
#
# Track frame offsets:
#	182
#	19502
#	38947
#	57975
#	68600
#	86490
#	95020
#
# Disc length: 1509 seconds
#
# Revision: 0
# Processed by: cddbd v1.5.2PL0 Copyright (c) Steve Scherf et al.
# Submitted via: jetAudio 7
#
DISCID=5105e307
DTITLE=Artiste inconnu - Album inconnu
DYEAR=1900
DGENRE=Genre inconnu
TTITLE0=Piste 1
TTITLE1=Piste 2
TTITLE2=Piste 3
TTITLE3=Piste 4
TTITLE4=Piste 5
TTITLE5=Piste 6
TTITLE6=Piste 7
EXTD=
EXTT0=
EXTT1=
EXTT2=
EXTT3=
EXTT4=
EXTT5=
EXTT6=
PLAYORDER=
